<?xml version="1.0" standalone="no"?>
<!DOCTYPE svg PUBLIC "-//W3C//DTD SVG 20010904//EN"
 "http://www.w3.org/TR/2001/REC-SVG-20010904/DTD/svg10.dtd">
<svg version="1.0" xmlns="http://www.w3.org/2000/svg"
 width="700.000000pt" height="700.000000pt" viewBox="0 0 700.000000 700.000000"
 preserveAspectRatio="xMidYMid meet">
<metadata>
Created by potrace 1.14, written by Peter Selinger 2001-2017
</metadata>
<g transform="translate(0.000000,700.000000) scale(0.100000,-0.100000)"
fill="#000000" stroke="none">
<path d="M2495 5904 c-145 -38 -224 -85 -290 -175 -64 -87 -75 -130 -184 -719
-5 -30 -28 -152 -51 -270 -46 -246 -46 -242 -55 -295 -4 -22 -9 -49 -12 -60
-11 -57 -45 -234 -49 -260 -3 -16 -16 -84 -29 -150 -13 -66 -26 -131 -28 -145
-3 -14 -12 -65 -22 -115 -9 -49 -19 -101 -21 -115 -3 -14 -9 -47 -14 -75 -16
-81 -19 -97 -26 -139 -3 -22 -7 -43 -9 -46 -2 -4 -7 -29 -11 -56 -3 -27 -8
-52 -10 -55 -2 -3 -6 -21 -9 -40 -10 -63 -17 -89 -22 -89 -13 0 -199 251 -309
417 -120 181 -144 198 -279 197 -482 -3 -906 -342 -1032 -826 -46 -178 -39
-419 18 -593 54 -164 133 -296 251 -420 141 -149 316 -254 508 -306 143 -38
112 -38 2715 -35 1386 1 2538 5 2560 10 291 57 526 202 700 431 83 109 170
304 192 430 2 17 9 50 13 75 11 60 5 292 -9 355 -79 345 -276 606 -571 758
-164 85 -299 120 -475 121 -135 1 -159 -16 -279 -197 -53 -79 -126 -184 -163
-233 -37 -50 -84 -111 -103 -137 -19 -25 -38 -46 -42 -47 -4 0 -10 17 -14 38
-4 20 -8 46 -11 57 -18 90 -24 124 -28 150 -3 17 -8 41 -10 55 -10 48 -62 323
-69 360 -2 14 -11 59 -19 100 -9 41 -19 91 -22 110 -3 19 -8 46 -10 60 -3 14
-7 36 -10 50 -3 14 -9 48 -15 75 -5 28 -12 66 -15 85 -3 19 -12 67 -20 105 -8
39 -16 81 -19 95 -2 14 -12 66 -21 115 -10 50 -19 99 -21 110 -2 11 -15 81
-29 155 -15 74 -32 169 -40 210 -8 41 -17 89 -20 105 -3 17 -12 64 -20 105 -8
41 -17 89 -20 105 -54 294 -73 345 -167 437 -102 100 -244 142 -393 114 -83
-16 -173 -71 -300 -184 -17 -15 -53 -45 -80 -67 -28 -22 -61 -50 -75 -61 -14
-12 -86 -72 -160 -134 -74 -62 -146 -122 -160 -134 -14 -12 -38 -31 -53 -43
l-28 -22 -327 272 c-180 149 -333 278 -340 284 -24 23 -96 61 -147 78 -43 14
-162 26 -190 19z m2393 -2843 c17 -1 22 -7 22 -27 0 -14 4 -44 10 -67 5 -23
19 -93 31 -156 l22 -114 -29 -26 c-32 -29 -150 -130 -172 -146 -7 -5 -18 -15
-25 -20 -17 -15 -145 -106 -192 -137 -253 -166 -518 -288 -762 -348 -152 -38
-193 -44 -298 -44 -138 0 -262 26 -465 97 -316 109 -669 324 -948 574 l-54 48
17 90 c9 50 23 131 33 182 14 79 19 93 37 95 16 2 2697 1 2773 -1z"/>
</g>
</svg>
