<?xml version="1.0" encoding="utf-8"?>
<svg width="576px" height="110px" viewBox="0 0 576 110" version="1.1" xmlns:xlink="http://www.w3.org/1999/xlink" xmlns="http://www.w3.org/2000/svg">
  <defs>
    <path d="M576 0L576 0L576 110L0 110L0 0L576 0Z" id="path_1" />
    <clipPath id="clip_1">
      <use xlink:href="#path_1" clip-rule="evenodd" fill-rule="evenodd" />
    </clipPath>
  </defs>
  <g id="Cadre">
    <path d="M576 0L576 0L576 110L0 110L0 0L576 0Z" id="Cadre" fill="none" stroke="none" />
    <g id="FARWEST" clip-path="url(#clip_1)">
      <g transform="translate(0, 33.48)" id="FARWEST" fill="#052D33">
        <path d="M31.496 105.4L8.308 105.4L8.308 32.364L64.356 32.364L64.356 41.54L31.496 41.54L31.496 64.356L62.124 64.356L62.124 73.284L31.496 73.284L31.496 105.4ZM71.548 105.4L61.132 105.4L89.032 32.364L111.972 32.364L139.996 105.4L113.336 105.4L107.756 88.908L77.872 88.908L71.548 105.4ZM81.468 79.856L104.656 79.856L93.744 47.988L81.468 79.856ZM173.972 105.4L150.784 105.4L150.784 32.364L186.496 32.364Q221.092 32.364 221.092 54.064Q221.092 70.184 202.12 74.276L202.492 74.4Q208.94 76.136 212.04 78.988Q215.14 81.84 217.248 87.296L223.944 105.4L198.772 105.4L192.324 85.932Q190.216 79.856 188.17 77.81Q186.124 75.764 180.544 75.764L173.972 75.764L173.972 105.4ZM173.972 41.168L173.972 67.084L183.024 67.084Q197.284 67.084 197.284 54.064Q197.284 41.168 183.024 41.168L173.972 41.168ZM273.916 105.4L251.224 105.4L228.408 32.364L253.456 32.364L270.196 87.544L286.192 32.364L303.8 32.364L320.664 87.792L336.66 32.364L347.448 32.364L324.632 105.4L301.692 105.4L287.804 62.124L273.916 105.4ZM414.656 105.4L357.12 105.4L357.12 32.364L414.656 32.364L414.656 41.54L380.308 41.54L380.308 64.108L412.548 64.108L412.548 73.284L380.308 73.284L380.308 96.348L414.656 96.348L414.656 105.4ZM462.644 106.64Q443.176 106.64 433.752 100.936Q424.328 95.232 424.328 85.312Q424.328 83.452 424.452 82.584L449.252 82.584Q448.88 84.692 448.88 86.552Q448.88 98.952 463.388 98.952Q469.836 98.952 473.246 96.658Q476.656 94.364 476.656 90.272Q476.656 86.428 472.874 83.514Q469.092 80.6 463.326 78.802Q457.56 77.004 450.926 74.648Q444.292 72.292 438.526 69.75Q432.76 67.208 428.978 62.682Q425.196 58.156 425.196 52.08Q425.196 42.16 434.868 36.642Q444.54 31.124 461.404 31.124Q479.384 31.124 488.498 36.146Q497.612 41.168 497.612 48.98Q497.612 50.84 497.364 51.832L472.812 51.832Q472.936 51.088 472.936 49.848Q472.936 44.764 469.526 41.85Q466.116 38.936 460.536 38.936Q454.956 38.936 451.856 40.858Q448.756 42.78 448.756 46.252Q448.756 49.972 452.6 52.824Q456.444 55.676 462.148 57.412Q467.852 59.148 474.548 61.504Q481.244 63.86 486.948 66.402Q492.652 68.944 496.496 73.718Q500.34 78.492 500.34 84.692Q500.34 94.736 489.924 100.688Q479.508 106.64 462.644 106.64ZM550.436 105.4L527.124 105.4L527.124 41.54L503.44 41.54L503.44 32.364L573.872 32.364L573.872 41.54L550.436 41.54L550.436 105.4Z" />
      </g>
    </g>
  </g>
</svg>